<?xml version="1.0" encoding="utf-8"?>
<!-- Generator: Adobe Illustrator 22.0.1, SVG Export Plug-In . SVG Version: 6.00 Build 0)  -->
<svg version="1.1" id="Слой_1" xmlns="http://www.w3.org/2000/svg" xmlns:xlink="http://www.w3.org/1999/xlink" x="0px" y="0px"
	 viewBox="0 0 16 16" style="enable-background:new 0 0 16 16;" xml:space="preserve">
<g>
	<g>
		<path fill="#777" d="M5.9,8.7h-1C4.7,8.7,4.6,8.8,4.6,9v1c0,0.2,0.1,0.3,0.3,0.3h1c0.2,0,0.3-0.1,0.3-0.3V9C6.2,8.8,6.1,8.7,5.9,8.7z M8.6,8.7
			h-1C7.4,8.7,7.2,8.8,7.2,9v1c0,0.2,0.1,0.3,0.3,0.3h1c0.2,0,0.3-0.1,0.3-0.3V9C8.9,8.8,8.7,8.7,8.6,8.7z M11.2,8.7h-1
			C10,8.7,9.8,8.8,9.8,9v1c0,0.2,0.1,0.3,0.3,0.3h1c0.2,0,0.3-0.1,0.3-0.3V9C11.5,8.8,11.3,8.7,11.2,8.7z M5.9,11.3h-1
			c-0.2,0-0.3,0.1-0.3,0.3v1c0,0.2,0.1,0.3,0.3,0.3h1c0.2,0,0.3-0.1,0.3-0.3v-1C6.2,11.4,6.1,11.3,5.9,11.3z M8.6,11.3h-1
			c-0.2,0-0.3,0.1-0.3,0.3v1c0,0.2,0.1,0.3,0.3,0.3h1c0.2,0,0.3-0.1,0.3-0.3v-1C8.9,11.4,8.7,11.3,8.6,11.3z M11.2,11.3h-1
			c-0.2,0-0.3,0.1-0.3,0.3v1c0,0.2,0.1,0.3,0.3,0.3h1c0.2,0,0.3-0.1,0.3-0.3v-1C11.5,11.4,11.3,11.3,11.2,11.3z M13.3,3.2v1.6
			c0,0.7-0.6,1.3-1.3,1.3h-0.8c-0.7,0-1.3-0.6-1.3-1.3V3.2H6.2v1.6c0,0.7-0.6,1.3-1.3,1.3H4c-0.7,0-1.3-0.6-1.3-1.3V3.2
			c-0.6,0-1.1,0.5-1.1,1.2v9.4c0,0.7,0.5,1.2,1.2,1.2h10.5c0.7,0,1.2-0.5,1.2-1.2V4.4C14.5,3.7,14,3.2,13.3,3.2z M13,13.1
			c0,0.3-0.2,0.5-0.5,0.5H3.6c-0.3,0-0.5-0.2-0.5-0.5V8.3c0-0.3,0.2-0.5,0.5-0.5h8.8C12.7,7.8,13,8,13,8.3V13.1z M4,5.2h0.8
			c0.2,0,0.4-0.2,0.4-0.4V2.2c0-0.2-0.2-0.4-0.4-0.4H4c-0.2,0-0.4,0.2-0.4,0.4v2.6C3.6,5,3.8,5.2,4,5.2z M11.2,5.2H12
			c0.2,0,0.4-0.2,0.4-0.4V2.2c0-0.2-0.2-0.4-0.4-0.4h-0.8c-0.2,0-0.4,0.2-0.4,0.4v2.6C10.8,5,11,5.2,11.2,5.2z"/>
	</g>
</g>
</svg>
