<svg id="Shape_7" data-name="Shape 7" xmlns="http://www.w3.org/2000/svg" width="19" height="11" viewBox="0 0 19 11">
  <path id="Shape_7-2" data-name="Shape 7" d="M1191.612,574.107l-2.612-2.64,2.549-2.576a9.722,9.722,0,0,1,13.838,0l2.613,2.64-2.549,2.576a9.723,9.723,0,0,1-13.839,0Zm.391-4.757-2.094,2.118,2.158,2.181a9.084,9.084,0,0,0,12.93,0l2.1-2.117-2.158-2.182a9.085,9.085,0,0,0-12.931,0Zm2.317,2.14a4.172,4.172,0,1,1,4.172,4.216A4.2,4.2,0,0,1,1194.319,571.49Zm.642,0a3.53,3.53,0,1,0,3.53-3.568A3.553,3.553,0,0,0,1194.961,571.49Zm.963-.325a2.261,2.261,0,0,1,2.246-2.271.324.324,0,0,1,0,.649,1.615,1.615,0,0,0-1.6,1.622.321.321,0,1,1-.642,0Z" transform="translate(-1189 -565.999)" fill="#6b6b6b"/>
</svg>
