<svg fill="#078089" stroke="#078089" stroke-width="1" height="12pt" viewBox="-68 0 512 512" width="12pt" xmlns="http://www.w3.org/2000/svg">
    <path d="m187.644531 0c-103.46875 0-187.644531 84.175781-187.644531 187.644531 0 47.53125 29.949219 114.6875 89.019531 199.605469 43.175781 62.074219 85.640625 110.109375 87.429688 112.125l11.195312 12.625 11.199219-12.625c1.785156-2.015625 44.25-50.050781 87.429688-112.125 59.066406-84.917969 89.019531-152.074219 89.019531-199.605469 0-103.46875-84.179688-187.644531-187.648438-187.644531zm74.21875 369.914062c-29.183593 41.984376-58.679687 78.117188-74.21875 96.550782-15.5-18.382813-44.886719-54.378906-74.050781-96.308594-54.730469-78.679688-83.660156-141.792969-83.660156-182.511719 0-86.960937 70.75-157.710937 157.710937-157.710937 86.964844 0 157.710938 70.75 157.710938 157.710937 0 40.675781-28.871094 103.703125-83.492188 182.269531zm0 0" />
    <path d="m187.644531 69.351562c-61.066406 0-110.746093 49.679688-110.746093 110.746094s49.679687 110.75 110.746093 110.75c61.070313 0 110.75-49.683594 110.75-110.75s-49.679687-110.746094-110.75-110.746094zm0 191.5625c-44.558593 0-80.8125-36.253906-80.8125-80.816406 0-44.558594 36.253907-80.8125 80.8125-80.8125 44.5625 0 80.816407 36.253906 80.816407 80.8125 0 44.5625-36.253907 80.816406-80.816407 80.816406zm0 0" />
</svg>