<?xml version="1.0" encoding="utf-8"?>
<!-- Generator: Adobe Illustrator 20.1.0, SVG Export Plug-In . SVG Version: 6.00 Build 0)  -->
<svg version="1.1" id="Слой_1" xmlns="http://www.w3.org/2000/svg" xmlns:xlink="http://www.w3.org/1999/xlink" x="0px" y="0px"
	 viewBox="0 0 450 450" style="enable-background:new 0 0 450 450;" xml:space="preserve">
<style type="text/css">
	.st0{fill:#66F3DA;}
</style>
<path class="st0" d="M435.1,0l-84.9,0c-2-0.1-4,0.7-5.5,2.2c-1.4,1.4-2.2,3.4-2.2,5.5V25c-86.9-0.1-205.2-0.2-264.9,0
	C54.8,25,35.9,42.6,35.9,64.3V65c0.1,9.6,3.8,18.8,10.4,25.8c-15.9,5.5-27.1,20-27.1,37c0.1,10.5,4.6,20.5,12.3,27.6
	c-13.5,6.5-22.5,19.8-22.5,35.1v0.7c0,10.9,4.6,21.2,12.7,28.4C9,226.3,0.4,239.1,0.4,253.7c0,21.7,18.6,39.3,41.5,39.3l132,0.1
	l-2.6,91.5c0,0.1,0,0.2,0,0.4c0.5,31.6,24.2,58,55.5,62.1l17.8,2.8c2.2,0.3,4.4-0.2,6.2-1.6c1.7-1.4,2.8-3.4,3-5.7l7.4-96.8
	c0.9-11.9,5-23.3,11.9-33.1c4.4-6.3,9.8-11.8,16.1-16.1c2.6-1.8,5.7-3.7,8.7-5.7c14.1-9.3,31.8-20.9,44.7-34.2v27.6
	c0,4.4,3.2,8.4,7.6,8.4h84.9c4.6-0.1,8.2-3.8,8.4-8.4V7.6C443.5,3.2,439.6,0,435.1,0z"/>
<path class="st0" d="M289,277.6c-3.1,2-6.1,4-8.8,5.8c-7.9,5.4-14.8,12.3-20.3,20.2c-8.5,12.1-13.6,26.3-14.7,41l-6.7,88.2l-9.3-1.5
	c-0.1,0-0.1,0-0.2,0c-23.4-3.1-41.1-22.7-41.7-46.3l2.8-99.5c0.1-2.2-0.8-4.2-2.3-5.8c-1.5-1.5-3.6-2.4-5.7-2.4l-140.2-0.1
	c-14.1,0-25.5-10.3-25.5-23.1c0-12.9,11.5-23.1,25.6-23.1h6.8c0.4,0,0.9,0,1.3,0c0.2,0,0.4,0,0.6,0h54.8c4.4,0,8-3.6,8-8
	c0-4.4-3.6-8-8-8H48.9c-13.6-1-24-11.2-24-23.7v-0.7c0-12.9,11-23.5,25.1-23.5h50.2c4.4,0,8-3.6,8-8c0-4.4-3.6-8-8-8H60.8
	c-14.1,0-25.6-10.6-25.6-23.5c0-12.9,11.5-23.4,25.6-23.4h37.1c4.4,0,8-3.6,8-8s-3.6-8-8-8H77.8c-14.1,0-26-10.1-26-23v-0.7
	c0-12.8,11.8-23.3,25.9-23.3c59.7-0.1,178-0.1,264.9,0v189C334.6,247.6,308.3,264.9,289,277.6z"/>
<rect x="358.6" y="16" class="st0" width="68.9" height="260.8"/>
</svg>
