<svg height="450pt" viewBox="-3 0 450 450.37734" width="450pt" xmlns="http://www.w3.org/2000/svg"><path d="m435.324219.00390625h-85c-2.042969-.07031245-4.027344.71093775-5.472657 2.15624975-1.445312 1.445313-2.226562 3.425782-2.152343 5.46875v17.355469c-87-.082031-205.339844-.164063-265.140625-.027344-22.875.054688-41.859375 17.710938-41.859375 39.359375v.699219c.097656 9.59375 3.804687 18.796875 10.378906 25.78125-15.875 5.550781-27.128906 20.027344-27.128906 37.007813.148437 10.492187 4.578125 20.46875 12.261719 27.617187-13.511719 6.5-22.511719 19.792969-22.511719 35.097656v.738281c-.035157 10.863282 4.578125 21.226563 12.671875 28.472657-12.574219 6.78125-21.183594 19.582031-21.183594 34.230469 0 21.6875 18.585938 39.34375 41.5 39.359374l132.109375.140626-2.554687 91.5625c0 .121093-.011719.238281-.007813.359374.53125 31.628907 24.1875 58.082032 55.5625 62.132813l17.789063 2.765625c2.207031.34375 4.453124-.25 6.203124-1.636719 1.746094-1.386719 2.835938-3.4375 3.003907-5.664062l7.390625-96.898438c.910156-11.890625 5.007812-23.320312 11.867187-33.078125 4.363281-6.308594 9.832031-11.777344 16.148438-16.132812 2.597656-1.769532 5.671875-3.675782 8.722656-5.691406 14.101563-9.320313 31.78125-20.914063 44.78125-34.1875v27.636718c0 4.421875 3.207031 8.375 7.625 8.375h85c4.5625-.148437 8.222656-3.8125 8.371094-8.375v-277c0-4.417968-3.957031-7.62499975-8.375-7.62499975zm-146.226563 277.82812475c-3.101562 2.046875-6.113281 3.976563-8.800781 5.804688-7.925781 5.441406-14.800781 12.277343-20.285156 20.171875-8.519531 12.113281-13.617188 26.300781-14.75 41.066406l-6.742188 88.269531-9.355469-1.457031c-.074218-.011719-.148437-.019531-.222656-.03125-23.421875-3.085938-41.117187-22.757812-41.707031-46.375l2.757813-99.589844c.0625-2.15625-.753907-4.246094-2.257813-5.796875-1.503906-1.546875-3.570313-2.421875-5.730469-2.425781l-140.355468-.148438c-14.101563-.007812-25.570313-10.28125-25.570313-23.160156s11.476563-23.15625 25.585937-23.15625h6.800782c.445312 0 .898437.019532 1.347656.019532.234375-.003907.386719-.019532.578125-.019532h54.867187c4.417969 0 8-3.582031 8-8 0-4.417968-3.582031-8-8-8h-56.519531c-13.609375-1-24.039062-11.199218-24.039062-23.746094v-.738281c0-12.878906 11.015625-23.515625 25.125-23.515625h50.199219c4.417968 0 8-3.582031 8-8 0-4.417968-3.582032-8-8-8h-39.386719c-14.109375 0-25.589844-10.582031-25.589844-23.535156 0-12.882812 11.480469-23.464844 25.589844-23.464844h37.160156c4.417969 0 8-3.582031 8-8 0-4.417968-3.582031-8-8-8h-20.125c-14.109375 0-25.972656-10.113281-25.972656-22.992187v-.699219c0-12.847656 11.824219-23.328125 25.898437-23.359375 59.78125-.140625 178.101563-.054687 265.101563.027344v189.195312c-8 17.585938-34.339844 34.929688-53.601563 47.65625zm138.601563-.828125h-69v-261h69zm0 0"/></svg>