<?xml version="1.0" encoding="utf-8"?>
<!-- Generator: Adobe Illustrator 20.1.0, SVG Export Plug-In . SVG Version: 6.00 Build 0)  -->
<svg version="1.1" id="Слой_1" xmlns="http://www.w3.org/2000/svg" xmlns:xlink="http://www.w3.org/1999/xlink" x="0px" y="0px"
	 viewBox="0 0 450 450" style="enable-background:new 0 0 450 450;" xml:space="preserve">
<path d="M8.7,450h84.9c2,0.1,4-0.7,5.5-2.2c1.4-1.4,2.2-3.4,2.2-5.5V425c86.9,0.1,205.2,0.2,264.9,0c22.9-0.1,41.8-17.7,41.8-39.3
	V385c-0.1-9.6-3.8-18.8-10.4-25.8c15.9-5.5,27.1-20,27.1-37c-0.1-10.5-4.6-20.5-12.3-27.6c13.5-6.5,22.5-19.8,22.5-35.1v-0.7
	c0-10.9-4.6-21.2-12.7-28.4c12.6-6.8,21.2-19.6,21.2-34.2c0-21.7-18.6-39.3-41.5-39.3l-132-0.1l2.6-91.5c0-0.1,0-0.2,0-0.4
	c-0.5-31.6-24.2-58-55.5-62.1l-17.8-2.8c-2.2-0.3-4.4,0.2-6.2,1.6c-1.7,1.4-2.8,3.4-3,5.7l-7.4,96.8c-0.9,11.9-5,23.3-11.9,33.1
	c-4.4,6.3-9.8,11.8-16.1,16.1c-2.6,1.8-5.7,3.7-8.7,5.7c-14.1,9.3-31.8,20.9-44.7,34.2v-27.6c0-4.4-3.2-8.4-7.6-8.4H8.7
	c-4.6,0.1-8.2,3.8-8.4,8.4l0,276.8C0.4,446.8,4.3,450,8.7,450z M154.8,172.4c3.1-2,6.1-4,8.8-5.8c7.9-5.4,14.8-12.3,20.3-20.2
	c8.5-12.1,13.6-26.3,14.7-41l6.7-88.2l9.3,1.5c0.1,0,0.1,0,0.2,0c23.4,3.1,41.1,22.7,41.7,46.3l-2.8,99.5c-0.1,2.2,0.8,4.2,2.3,5.8
	c1.5,1.5,3.6,2.4,5.7,2.4l140.2,0.1c14.1,0,25.5,10.3,25.5,23.1c0,12.9-11.5,23.1-25.6,23.1h-6.8c-0.4,0-0.9,0-1.3,0
	c-0.2,0-0.4,0-0.6,0h-54.8c-4.4,0-8,3.6-8,8c0,4.4,3.6,8,8,8H395c13.6,1,24,11.2,24,23.7v0.7c0,12.9-11,23.5-25.1,23.5h-50.2
	c-4.4,0-8,3.6-8,8c0,4.4,3.6,8,8,8h39.4c14.1,0,25.6,10.6,25.6,23.5c0,12.9-11.5,23.4-25.6,23.4H346c-4.4,0-8,3.6-8,8s3.6,8,8,8
	h20.1c14.1,0,26,10.1,26,23v0.7c0,12.8-11.8,23.3-25.9,23.3c-59.7,0.1-178,0.1-264.9,0V220C109.3,202.4,135.6,185.1,154.8,172.4z
	 M16.4,173.2h68.9V434H16.4V173.2z"/>
</svg>
