<svg xmlns="http://www.w3.org/2000/svg" width="533pt" height="533pt" viewBox="-16 -20 533.33331 533">
    <path d="M437.5 42.73h-33.75V12.418c0-6.906-5.594-12.5-12.5-12.5s-12.5 5.594-12.5 12.5V42.73h-257.5V12.418c0-6.906-5.594-12.5-12.5-12.5s-12.5 5.594-12.5 12.5V42.73H62.5C28.04 42.73 0 71.156 0 105.621v324.922c.063 34.406 28.012 62.25 62.422 62.187H437.5c34.41.106 62.39-27.703 62.5-62.109v-325c0-34.465-28.04-62.89-62.5-62.89zM475 430.543c-.047 20.586-16.777 37.234-37.363 37.187H62.5c-20.586.122-37.375-16.464-37.5-37.05V105.62c0-20.68 16.82-37.89 37.5-37.89h33.75v43.867c0 6.902 5.594 12.5 12.5 12.5s12.5-5.598 12.5-12.5V67.73h257.5v43.868c0 6.902 5.594 12.5 12.5 12.5s12.5-5.598 12.5-12.5V67.73h33.75c20.68 0 37.5 17.211 37.5 37.891zm0 0"/>
    <path d="M384.34 280.23H115.66c-6.906 0-12.5 5.594-12.5 12.5 0 6.903 5.594 12.5 12.5 12.5h268.68c6.906 0 12.5-5.597 12.5-12.5 0-6.906-5.594-12.5-12.5-12.5zm0 0M384.34 370.23H115.66c-6.906 0-12.5 5.594-12.5 12.5 0 6.903 5.594 12.5 12.5 12.5h268.68c6.906 0 12.5-5.597 12.5-12.5 0-6.906-5.594-12.5-12.5-12.5zm0 0M115.66 216.48h145.535c6.907 0 12.5-5.597 12.5-12.5 0-6.906-5.593-12.5-12.5-12.5H115.66c-6.906 0-12.5 5.594-12.5 12.5 0 6.903 5.594 12.5 12.5 12.5zm0 0"/>
</svg>
