<svg width="37" height="42" viewBox="0 0 37 42" fill="none" xmlns="http://www.w3.org/2000/svg">
<path d="M32.4443 8.9674C32.4443 10.337 32.4443 11.7065 32.4443 13.0761C32.4443 15.0269 32.4443 16.9822 32.4443 18.933C32.4443 19.9767 32.4179 21.016 32.2814 22.0553C32.3034 21.8791 32.3298 21.703 32.3518 21.5268C32.1316 23.143 31.7045 24.7195 31.0747 26.2212C31.1408 26.0627 31.2069 25.9042 31.2729 25.75C30.652 27.2209 29.8417 28.6036 28.8685 29.8675C28.9698 29.7354 29.0754 29.5989 29.1767 29.4668C28.2299 30.6866 27.1334 31.7787 25.9136 32.7299C26.0457 32.6287 26.1822 32.523 26.3143 32.4217C25.1693 33.3068 23.9055 34.0246 22.668 34.7733C21.1443 35.6981 19.6206 36.6228 18.0969 37.5476C17.7226 37.7766 17.3483 38.0012 16.974 38.2302C17.6389 38.2302 18.3083 38.2302 18.9733 38.2302C18.0177 37.6313 17.062 37.0368 16.1064 36.4379C14.7545 35.5924 13.4025 34.7468 12.0506 33.9013C11.39 33.4874 10.7383 33.0646 10.1173 32.589C10.2495 32.6903 10.386 32.796 10.5181 32.8973C9.27623 31.9329 8.16209 30.8187 7.20207 29.5769C7.30336 29.709 7.40905 29.8455 7.51033 29.9776C6.55032 28.7269 5.75324 27.3574 5.13672 25.8997C5.20277 26.0583 5.26883 26.2168 5.33489 26.3709C4.71396 24.8825 4.2868 23.3236 4.0622 21.725C4.08422 21.9012 4.11065 22.0773 4.13266 22.2535C3.89486 20.4832 3.96532 18.6776 3.96532 16.8941C3.96532 14.7671 3.96532 12.6401 3.96532 10.5175C3.96532 10.0023 3.96532 9.48263 3.96532 8.9674C3.48091 9.60594 2.9965 10.2401 2.51209 10.8786C7.10079 9.90979 11.575 8.32445 15.6264 5.93322C16.7846 5.25065 17.8988 4.50201 18.9689 3.69172C18.6342 3.7798 18.3039 3.87228 17.9692 3.96035C18.0749 3.96035 18.185 3.96035 18.2907 3.96035C17.956 3.87228 17.6257 3.7798 17.291 3.69172C21.3689 6.67746 26.0325 8.89253 30.9118 10.2004C31.8938 10.4647 32.8891 10.676 33.8887 10.883C34.4128 10.9887 34.9412 10.9623 35.4168 10.6849C35.8264 10.4426 36.2183 9.97145 36.3284 9.50025C36.4429 8.99382 36.4209 8.42574 36.1302 7.97215C35.8616 7.5538 35.4477 7.16627 34.9456 7.06058C32.1669 6.4925 29.463 5.72185 26.8472 4.62532C27.0057 4.69137 27.1642 4.75743 27.3184 4.82348C24.9712 3.83264 22.7253 2.62162 20.6115 1.19921C20.356 1.02747 20.105 0.855721 19.854 0.675168C19.7307 0.587093 19.603 0.499018 19.4797 0.40654C19.1142 0.142316 18.7223 0.00579996 18.2643 0.00139622C17.8195 -0.00741124 17.3527 0.0190113 16.9696 0.270024C16.6965 0.450577 16.4367 0.66636 16.1681 0.85572C15.1376 1.59114 14.0719 2.26491 12.971 2.88584C11.7423 3.57723 10.474 4.19375 9.17935 4.74422C9.33788 4.67816 9.49642 4.6121 9.65055 4.54605C7.00831 5.66019 4.26037 6.46608 1.45519 7.05618C1.29666 7.12223 1.13812 7.18829 0.983991 7.25434C0.754997 7.37765 0.565636 7.54939 0.42912 7.76518C0.160492 8.11307 0.00195722 8.51822 0.00195722 8.9674C0.00195722 10.7597 0.00195722 12.5564 0.00195722 14.3488C0.00195722 16.1587 -0.00244652 17.9686 0.00195722 19.7742C0.00636096 22.0685 0.389486 24.4069 1.17335 26.5647C1.56969 27.648 2.03648 28.7181 2.60016 29.7266C3.16384 30.7394 3.83321 31.6774 4.55542 32.5846C5.91618 34.2977 7.594 35.7597 9.43036 36.9399C10.0161 37.3142 10.6106 37.6797 11.1963 38.0452C13.0767 39.221 14.9571 40.3924 16.833 41.5682C16.8771 41.5947 16.9167 41.6211 16.9608 41.6475C17.5509 42.0174 18.37 42.0042 18.9601 41.6475C20.6511 40.6214 22.3377 39.5954 24.0288 38.5693C24.8302 38.0849 25.6317 37.5961 26.4332 37.1117C27.8776 36.2309 29.2428 35.196 30.4406 33.9982C31.9731 32.4613 33.2854 30.6558 34.241 28.7093C34.7475 27.6745 35.1878 26.5955 35.5225 25.4946C35.866 24.3584 36.0774 23.2047 36.2271 22.0289C36.368 20.95 36.3857 19.871 36.3857 18.7833C36.3857 17.6692 36.3857 16.5506 36.3857 15.4365C36.3857 13.3227 36.3857 11.2089 36.3857 9.0951C36.3857 9.05547 36.3857 9.01143 36.3857 8.9718C36.3857 8.46537 36.1655 7.92811 35.8044 7.57141C35.4609 7.22792 34.8972 6.9681 34.404 6.99012C33.8931 7.01214 33.3603 7.17948 33.0036 7.57141C32.6689 7.95454 32.4443 8.43014 32.4443 8.9674Z" fill="#078089"/>
<path d="M9.3204 21.5225C10.8529 23.055 12.3898 24.5919 13.9223 26.1244C14.1381 26.3402 14.3583 26.5604 14.5741 26.7762C15.3315 27.5336 16.6174 27.5336 17.3748 26.7762C18.4714 25.6796 19.5635 24.5875 20.66 23.491C22.4039 21.7471 24.1478 20.0032 25.8916 18.2593C26.2924 17.8586 26.6931 17.4579 27.0939 17.0571C27.455 16.696 27.6752 16.1632 27.6752 15.6567C27.6752 15.1723 27.4594 14.591 27.0939 14.2564C26.7151 13.9085 26.2219 13.653 25.6935 13.6751C25.1694 13.6971 24.6718 13.8776 24.2931 14.2564C23.1966 15.3529 22.1044 16.445 21.0079 17.5415C19.2684 19.2854 17.5246 21.0293 15.7807 22.7776C15.3799 23.1783 14.9792 23.5791 14.5785 23.9798C15.512 23.9798 16.4456 23.9798 17.3792 23.9798C15.8467 22.4473 14.3098 20.9104 12.7773 19.3779C12.5615 19.1621 12.3414 18.9419 12.1256 18.7261C11.7645 18.3606 11.2316 18.1404 10.7252 18.1404C10.2408 18.1404 9.65949 18.3562 9.3248 18.7217C8.97691 19.1005 8.72149 19.5937 8.74351 20.1221C8.76553 20.6462 8.94168 21.1438 9.3204 21.5225Z"  fill="#078089"/>
</svg>
