<svg width="53" height="53" viewBox="0 0 53 53" fill="none" xmlns="http://www.w3.org/2000/svg">
<path d="M11.2424 53H41.7576C46.1855 53 49.7879 49.3976 49.7879 44.9697V28.9091C49.7879 28.0225 49.0684 27.303 48.1818 27.303C47.2953 27.303 46.5758 28.0225 46.5758 28.9091V44.9697C46.5758 47.6269 44.4148 49.7879 41.7576 49.7879H31.3182V33.7273C31.3182 32.8407 30.5987 32.1212 29.7121 32.1212C28.8256 32.1212 28.1061 32.8407 28.1061 33.7273V49.7879H24.8939V25.697H48.1818C50.839 25.697 53 23.536 53 20.8788V16.0606C53 13.4034 50.839 11.2424 48.1818 11.2424H38.1263C38.8972 10.0933 39.3485 8.71208 39.3485 7.22727C39.3485 3.24264 36.1067 0 32.1212 0C29.8518 0 27.8258 1.05358 26.5 2.69497C25.1742 1.05358 23.1482 0 20.8788 0C16.8933 0 13.6515 3.24264 13.6515 7.22727C13.6515 8.71208 14.1028 10.0933 14.8737 11.2424H4.81818C2.16095 11.2424 0 13.4034 0 16.0606V20.8788C0 22.9723 1.34347 24.7526 3.21212 25.4159V44.9697C3.21212 49.3976 6.81452 53 11.2424 53ZM21.6818 49.7879H11.2424C8.5852 49.7879 6.42424 47.6269 6.42424 44.9697V25.697H21.6818V49.7879ZM48.1818 14.4545C49.0676 14.4545 49.7879 15.1749 49.7879 16.0606V20.8788C49.7879 21.7645 49.0676 22.4848 48.1818 22.4848H31.3182V14.4545H48.1818ZM32.1212 3.21212C34.3352 3.21212 36.1364 5.01332 36.1364 7.22727C36.1364 9.44123 34.3352 11.2424 32.1212 11.2424C29.9073 11.2424 28.1061 9.44123 28.1061 7.22727C28.1061 5.01332 29.9073 3.21212 32.1212 3.21212ZM28.1061 14.4545V22.4848H24.8939V14.4545H28.1061ZM20.8788 3.21212C23.0927 3.21212 24.8939 5.01332 24.8939 7.22727C24.8939 9.44123 23.0927 11.2424 20.8788 11.2424C18.6648 11.2424 16.8636 9.44123 16.8636 7.22727C16.8636 5.01332 18.6648 3.21212 20.8788 3.21212ZM3.21212 16.0606C3.21212 15.1749 3.93244 14.4545 4.81818 14.4545H21.6818V22.4848H4.81818C3.93244 22.4848 3.21212 21.7645 3.21212 20.8788V16.0606Z" fill="#10A5AD"/>
</svg>
