<svg width="19" height="14" viewBox="0 0 19 14" fill="none" xmlns="http://www.w3.org/2000/svg">
<path d="M0.578212 7.84878C2.11071 9.38128 3.64761 10.9182 5.18011 12.4507C5.39589 12.6665 5.61608 12.8867 5.83186 13.1024C6.5893 13.8599 7.87519 13.8599 8.63264 13.1024C9.72917 12.0059 10.8213 10.9138 11.9178 9.81725C13.6617 8.07337 15.4056 6.32949 17.1495 4.58561C17.5502 4.18487 17.9509 3.78413 18.3517 3.38339C18.7128 3.02228 18.933 2.48943 18.933 1.983C18.933 1.49859 18.7172 0.917299 18.3517 0.582615C17.973 0.23472 17.4797 -0.0206962 16.9513 0.00132243C16.4272 0.0233411 15.9296 0.203893 15.5509 0.582615C14.4544 1.67915 13.3622 2.77127 12.2657 3.8678C10.5262 5.61168 8.78236 7.35556 7.03849 9.10384C6.63775 9.50458 6.23701 9.90532 5.83627 10.3061C6.76986 10.3061 7.70345 10.3061 8.63704 10.3061C7.10454 8.77356 5.56764 7.23666 4.03514 5.70416C3.81936 5.48838 3.59917 5.26819 3.38339 5.05241C3.02228 4.6869 2.48943 4.46671 1.983 4.46671C1.49859 4.46671 0.917299 4.68249 0.582615 5.048C0.234721 5.42673 -0.0206962 5.91994 0.00132243 6.44839C0.0233411 6.97244 0.199491 7.47006 0.578212 7.84878Z" fill="#078089"/>
</svg>
