<svg height="502.624pt" viewBox="0 0 502.624 502.624" width="502.624pt" xmlns="http://www.w3.org/2000/svg"><path d="m216.398438 80.96875 11.3125-11.3125-24.398438-24.398438-24.402344 24.398438 11.3125 11.3125 13.089844-13.089844zm0 0"/><path d="m149.65625 98.910156-24.398438 24.402344 24.398438 24.398438 11.3125-11.3125-13.089844-13.085938 13.089844-13.089844zm0 0"/><path d="m403.710938 352.96875-11.3125-11.3125-13.085938 13.085938-13.089844-13.085938-11.3125 11.3125 24.402344 24.398438zm0 0"/><path d="m432.96875 323.710938 24.398438-24.398438-24.398438-24.402344-11.3125 11.3125 13.085938 13.089844-13.085938 13.085938zm0 0"/><path d="m502.625 299.3125-299.3125-299.3125-123.3125 123.3125 80 80-25.542969 25.542969c-6.714843 6.710937-11.640625 15.089843-14.25 24.214843l-9.167969 32.082032c-1.863281 6.519531-5.382812 12.503906-10.175781 17.304687l-17.550781 17.542969-16-16-67.3125 67.3125 131.3125 131.3125 67.3125-67.3125-16-16 17.542969-17.542969c4.800781-4.792969 10.777343-8.320312 17.304687-10.175781l36.414063-10.410156c5.90625-1.679688 11.449219-4.3125 16.496093-7.800782l35.265626-24.414062 73.664062 73.65625zm-139.3125-88c0 18.03125-6.648438 34.984375-18.664062 48.238281-.785157-.0625-1.535157-.238281-2.335938-.238281h-5.601562l-30.894532 22.472656c-4.753906.96875-9.609375 1.527344-14.503906 1.527344-15.6875 0-30.625-5.039062-43.242188-14.550781l-14.207031-14.210938c-9.511719-12.613281-14.550781-27.550781-14.550781-43.238281 0-39.695312 32.304688-72 72-72 15.6875 0 30.625 5.039062 43.238281 14.550781l14.210938 14.207031c9.511719 12.617188 14.550781 27.554688 14.550781 43.242188zm-160-188.6875 101.785156 101.78125c-4.53125-.710938-9.128906-1.09375-13.785156-1.09375-48.519531 0-88 39.480469-88 88 0 4.65625.382812 9.253906 1.09375 13.785156l-101.78125-101.785156zm-180.6875 348.6875 20.6875-20.6875 108.6875 108.6875-20.6875 20.6875zm140.6875 76.6875-108.6875-108.6875 12.6875-12.6875 108.6875 108.6875zm97.960938-87.777344c-3.601563 2.496094-7.570313 4.371094-11.785157 5.578125l-36.417969 10.40625c-9.125 2.609375-17.503906 7.535157-24.214843 14.25l-17.542969 17.542969-76.6875-76.6875 17.542969-17.542969c6.710937-6.714843 11.640625-15.089843 14.246093-24.21875l9.171876-32.078125c1.863281-6.519531 5.382812-12.503906 10.175781-17.304687l25.550781-25.542969 12.6875 12.6875-18.34375 18.34375 11.3125 11.3125 18.34375-18.34375 12.6875 12.6875-18.34375 18.34375 11.3125 11.3125 18.34375-18.34375 12.6875 12.6875-18.34375 18.34375 11.3125 11.3125 19.351562-19.351562c11.574219 7.375 24.511719 11.824218 38.078126 13.199218l-33.6875 24.496094h-16.144532c-10.679687 0-20.726562 4.160156-28.277344 11.710938l-18.632812 18.632812 11.3125 11.3125 18.632812-18.632812c4.460938-4.464844 10.644532-7.023438 16.964844-7.023438h21.34375l88-64h.402344c7.167969 0 13 5.832031 13 13 0 4.261719-2.097656 8.253906-5.601562 10.679688zm97.542968-48.070312c7.824219-5.417969 12.496094-14.328125 12.496094-23.839844 0-9.136719-4.335938-17.207031-10.960938-22.519531 12.257813-15.472657 18.960938-34.433594 18.960938-54.480469 0-4.65625-.382812-9.265625-1.097656-13.785156l101.785156 101.785156-100.6875 100.6875-60.296875-60.296875zm0 0"/><path d="m315.3125 176-16-16-16 16c-5.160156 5.160156-8 12.015625-8 19.3125s2.839844 14.160156 8 19.3125l4.6875 4.6875c2.105469 2.101562 3.3125 5.023438 3.3125 8s-1.207031 5.894531-3.3125 8l-4.6875 4.6875-12.6875-12.6875c-2.105469-2.105469-3.3125-5.023438-3.3125-8s1.207031-5.898438 3.3125-8l2.34375-2.34375-11.3125-11.3125-2.34375 2.34375c-5.160156 5.160156-8 12.015625-8 19.3125 0 5.703125 1.785156 11.113281 5.007812 15.679688l-10.664062 10.664062 11.3125 11.3125 10.34375-10.34375 16 16 16-16c5.160156-5.160156 8-12.015625 8-19.3125s-2.839844-14.160156-8-19.3125l-4.6875-4.6875c-2.105469-2.105469-3.3125-5.023438-3.3125-8s1.207031-5.898438 3.3125-8l4.6875-4.6875 12.6875 12.6875c2.105469 2.101562 3.3125 5.023438 3.3125 8s-1.207031 5.894531-3.3125 8l-2.34375 2.34375 11.3125 11.3125 2.34375-2.34375c5.160156-5.160156 8-12.015625 8-19.3125 0-5.703125-1.785156-11.113281-5.007812-15.679688l10.664062-10.664062-11.3125-11.3125zm0 0"/></svg>